inDegrees=no
num_controls=7
num_derivatives=13
num_iterations=77
num_multipliers=7
num_parameters=0
num_slacks=7
num_states=26
objective=0.329969
objective_accelerations=0.044331
objective_balance=0.001461
objective_effort=0.032186
objective_height=0.250810
objective_ligament=0.001181
solver_duration=787.862603
status=Solve_Succeeded
success=true
DataType=double
version=3
OpenSimVersion=4.5
endheader
time	/jointset/ground_pelvis/pelvis_tilt/value	/jointset/ground_pelvis/pelvis_tx/value	/jointset/ground_pelvis/pelvis_ty/value	/jointset/hip_r/hip_flexion_r/value	/jointset/hip_r/hip_adduction_r/value	/jointset/hip_r/hip_rotation_r/value	/jointset/back/lumbar_extension/value	/jointset/patellofemoral_r/patellar_flexion_r/value	/jointset/knee_r/knee_flexion_r/value	/jointset/knee_r/knee_adduction_r/value	/jointset/knee_r/knee_rotation_r/value	/jointset/ankle_r/ankle_angle_r/value	/jointset/subtalar_r/subtalar_angle_r/value	/jointset/ground_pelvis/pelvis_tilt/speed	/jointset/ground_pelvis/pelvis_tx/speed	/jointset/ground_pelvis/pelvis_ty/speed	/jointset/hip_r/hip_flexion_r/speed	/jointset/hip_r/hip_adduction_r/speed	/jointset/hip_r/hip_rotation_r/speed	/jointset/back/lumbar_extension/speed	/jointset/patellofemoral_r/patellar_flexion_r/speed	/jointset/knee_r/knee_flexion_r/speed	/jointset/knee_r/knee_adduction_r/speed	/jointset/knee_r/knee_rotation_r/speed	/jointset/ankle_r/ankle_angle_r/speed	/jointset/subtalar_r/subtalar_angle_r/speed	/forceset/tau_hip_flexion_r	/forceset/tau_hip_adduction_r	/forceset/tau_hip_rotation_r	/forceset/tau_knee_flexion_r	/forceset/tau_ankle_angle_r	/forceset/tau_subtalar_angle_r	/forceset/tau_lumbar_extension	lambda_cid13_p0	lambda_cid14_p0	lambda_cid14_p1	lambda_cid14_p2	lambda_cid14_p3	lambda_cid14_p4	lambda_cid14_p5	/jointset/ground_pelvis/pelvis_tilt/accel	/jointset/ground_pelvis/pelvis_tx/accel	/jointset/ground_pelvis/pelvis_ty/accel	/jointset/hip_r/hip_flexion_r/accel	/jointset/hip_r/hip_adduction_r/accel	/jointset/hip_r/hip_rotation_r/accel	/jointset/back/lumbar_extension/accel	/jointset/patellofemoral_r/patellar_flexion_r/accel	/jointset/knee_r/knee_flexion_r/accel	/jointset/knee_r/knee_adduction_r/accel	/jointset/knee_r/knee_rotation_r/accel	/jointset/ankle_r/ankle_angle_r/accel	/jointset/subtalar_r/subtalar_angle_r/accel	gamma_cid13_p0	gamma_cid14_p0	gamma_cid14_p1	gamma_cid14_p2	gamma_cid14_p3	gamma_cid14_p4	gamma_cid14_p5
0.5	-0.2234196947759918	0.012388679169078	0.7697302760614034	1.071175682524498	-0.244379158828027	-0.04745496282569416	-0.6632468063762109	1.071241900863786	1.07124190086381	0.01786723483995322	0.1744584192455081	0.3079556043899812	0.1089661582665192	-0.5456200399974868	-0.2310637034428706	-0.6446774559949326	2.343558671717249	0.00332151818121705	0.3983613625493146	-0.7212451809391422	2.226484831661843	2.226484831661852	-0.3303966606114313	-0.0002682175827572165	0.5398146728545521	0.1955441656695271	-0.2462714442613236	0.01543948599671247	0.03071271424453825	-0.2833454978808196	-0.009809164505401213	-0.01099530462392247	0.2695448518548736	-3.218789690085973	-45.81588313324677	-12.29135482636989	1.803611991816373	-5.561789569143968	-637.0210402719836	51.73309685529978	0.6100397607540541	0.7598627806991196	-0.5284887724050116	-1.552532744756522	-0.006712802347620176	-0.4168623361590654	2.103583100799239	-1.635192908410364	-1.635192908410362	0.4916634562985226	-0.06279286152611956	-0.8152147929303833	-0.1031043136533735	8.69708328843095e-09	1.843564073256853e-07	3.579979238352681e-06	2.210919553950183e-06	-5.45030808294262e-07	-6.302678522162816e-08	2.68536552665287e-06
0.51	-0.2288440903359268	0.0101161945578798	0.7632586062950181	1.094530012260263	-0.2443466671716699	-0.04349694435811468	-0.670353836107818	1.093421507535566	1.093421507535575	0.01458504878430451	0.1744559518413534	0.3133118245134066	0.1109154382174317	-0.539166130508719	-0.2234190082778104	-0.6495098451840275	2.327002617747677	0.003178037918463523	0.3932210699378395	-0.7000901985813359	2.209140488011097	2.209140488011104	-0.3260336752942116	-0.0002258668291128958	0.5313383318167296	0.1942716236192883	-0.254401040608145	0.01668607548826683	0.03058083966886604	-0.2889202217470905	-0.01094638876568502	-0.01072461705397463	0.2767354340624029	-2.537493529082413	-46.59643629280176	-12.45656361301593	1.996829952659576	-5.493419216490964	-643.4818562338902	51.8644463703837	0.6770249720618589	0.7687971447195295	-0.4386288970707262	-1.75281775042624	-0.01750369811685072	-0.5658483055433497	2.132040823333454	-1.828459288590233	-1.828459288590697	0.4100823824951045	0.03820373272247778	-0.8776190885036907	-0.1445517610411487	1.067198996545819e-08	1.764956779854427e-07	3.419364530006358e-06	2.085094507372776e-06	-5.259830521484296e-07	-6.493167571890405e-08	2.654241257130339e-06
0.52	-0.2342011551151439	0.007920561750393875	0.75674300965576	1.11770964625086	-0.2443154779299038	-0.0395909759330423	-0.6772471990118346	1.115418789931801	1.115418789931797	0.01134678584445688	0.1744539988825118	0.3185805261605939	0.112850948225777	-0.5321538838550044	-0.2156933427004138	-0.6534628305694722	2.308619522683351	0.003061035260593754	0.3879513540503059	-0.6785118154210408	2.190019976553008	2.190019976553012	-0.3216120374545426	-0.0001653285189578804	0.5223109776070863	0.1927901771557696	-0.2625306369549811	0.01793266497982905	0.03044896509317406	-0.2944949456133621	-0.01208361302596309	-0.0104539294840141	0.2839260162699183	-1.938394731691837	-47.37380167039316	-12.61600555270574	2.183181462345114	-5.44965309849187	-649.8991358258795	52.00149430827562	0.7217071937434467	0.7760568631663923	-0.3526080116749731	-1.917940963707184	-0.001417281370903794	-0.4427469913707797	2.188263261296978	-1.990426469879049	-1.990426469879048	0.5033939607883602	-0.05915535022396327	-0.925417427294563	-0.1448851963093714	1.210197208431356e-08	1.676893135772292e-07	3.248603348730175e-06	1.950283642348936e-06	-5.045579607927842e-07	-6.762629621680236e-08	2.607519529533434e-06
0.53	-0.2394854128144765	0.0058025200293665	0.7501922972047157	1.140696519914446	-0.2442854492857184	-0.03573750277186608	-0.683922738779458	1.137216246415595	1.137216246415608	0.008153820975584118	0.1744524050782978	0.3237562953241225	0.1147703828755055	-0.5246085767254809	-0.2079072727786888	-0.6565296180684459	2.288458179699792	0.002940173050422093	0.3827596393597933	-0.6565407628489228	2.169193699101274	2.169193699101275	-0.3169299922882509	-0.0001574067445275268	0.5127620032531287	0.1910471344807111	-0.270524597959076	0.01907880725087922	0.03018458248829273	-0.3002161995260638	-0.01322217834409502	-0.01022409523095356	0.290951607138375	-1.421147005739283	-48.16201401422441	-12.79458863118998	2.37201012458701	-5.344868903090585	-656.3863381445324	52.11091485968127	0.7843196222646961	0.7809427046680273	-0.2612216917328605	-2.10976558576024	-0.01769424969676689	-0.5549831481128668	2.209832543304211	-2.170374119090935	-2.170374119091319	0.4586248482769966	0.03066034276257908	-0.9818743459838748	-0.1957358464428638	1.173222470582769e-08	1.5851495192613e-07	3.082013941149009e-06	1.814035411514881e-06	-4.833458047399438e-07	-6.872804733568727e-08	2.545415849916915e-06
0.54	-0.2446915420125685	0.003762551137154521	0.7436154153641367	1.163472873224181	-0.2442566839753982	-0.03193546664563933	-0.6903769067637333	1.158797110977623	1.158797110977646	0.005009279569218753	0.1744508693721008	0.328834127362801	0.1166710426898176	-0.5165281836076464	-0.2000787769373348	-0.6586967084763802	2.266515451913028	0.002808368485973055	0.3776639470604373	-0.6342374587514003	2.146701592198726	2.146701592198725	-0.3119273449728746	-0.0001537089106542335	0.5027235526376703	0.1890352100721031	-0.2785185589631804	0.02022494952196503	0.02992019988309699	-0.3059374534387823	-0.0143607436622087	-0.00999426097781176	0.2979771980068204	-0.9857139477898775	-48.94804496970366	-12.96712658089833	2.553408930894475	-5.266669141626734	-662.8483211082039	52.23197215326846	0.8287243914056336	0.7845420470921748	-0.1726685934670998	-2.274217924348245	-0.003605752226440432	-0.4235425131394941	2.254713566377898	-2.323592360041759	-2.323592360041755	0.5675143906052564	-0.06000013833536503	-1.023312679594748	-0.1986615430193115	9.371287245177001e-09	1.489334443892848e-07	2.920040112975098e-06	1.676196903614206e-06	-4.623692366816962e-07	-6.8067474886302e-08	2.466293840406354e-06
